<svg width="1200" height="630" xmlns="http://www.w3.org/2000/svg">
  <defs>
    <linearGradient id="bgGradient" x1="0%" y1="0%" x2="100%" y2="100%">
      <stop offset="0%" style="stop-color:#1a1a2e;stop-opacity:1" />
      <stop offset="100%" style="stop-color:#030712;stop-opacity:1" />
    </linearGradient>
    <filter id="glow">
      <feGaussianBlur stdDeviation="4" result="coloredBlur"/>
      <feMerge>
        <feMergeNode in="coloredBlur"/>
        <feMergeNode in="SourceGraphic"/>
      </feMerge>
    </filter>
  </defs>
  
  <!-- Background -->
  <rect width="1200" height="630" fill="url(#bgGradient)"/>
  
  <!-- Grid pattern -->
  <g opacity="0.1">
    <line x1="0" y1="0" x2="0" y2="630" stroke="#00d4ff" stroke-width="1"/><line x1="50" y1="0" x2="50" y2="630" stroke="#00d4ff" stroke-width="1"/><line x1="100" y1="0" x2="100" y2="630" stroke="#00d4ff" stroke-width="1"/><line x1="150" y1="0" x2="150" y2="630" stroke="#00d4ff" stroke-width="1"/><line x1="200" y1="0" x2="200" y2="630" stroke="#00d4ff" stroke-width="1"/><line x1="250" y1="0" x2="250" y2="630" stroke="#00d4ff" stroke-width="1"/><line x1="300" y1="0" x2="300" y2="630" stroke="#00d4ff" stroke-width="1"/><line x1="350" y1="0" x2="350" y2="630" stroke="#00d4ff" stroke-width="1"/><line x1="400" y1="0" x2="400" y2="630" stroke="#00d4ff" stroke-width="1"/><line x1="450" y1="0" x2="450" y2="630" stroke="#00d4ff" stroke-width="1"/><line x1="500" y1="0" x2="500" y2="630" stroke="#00d4ff" stroke-width="1"/><line x1="550" y1="0" x2="550" y2="630" stroke="#00d4ff" stroke-width="1"/><line x1="600" y1="0" x2="600" y2="630" stroke="#00d4ff" stroke-width="1"/><line x1="650" y1="0" x2="650" y2="630" stroke="#00d4ff" stroke-width="1"/><line x1="700" y1="0" x2="700" y2="630" stroke="#00d4ff" stroke-width="1"/><line x1="750" y1="0" x2="750" y2="630" stroke="#00d4ff" stroke-width="1"/><line x1="800" y1="0" x2="800" y2="630" stroke="#00d4ff" stroke-width="1"/><line x1="850" y1="0" x2="850" y2="630" stroke="#00d4ff" stroke-width="1"/><line x1="900" y1="0" x2="900" y2="630" stroke="#00d4ff" stroke-width="1"/><line x1="950" y1="0" x2="950" y2="630" stroke="#00d4ff" stroke-width="1"/><line x1="1000" y1="0" x2="1000" y2="630" stroke="#00d4ff" stroke-width="1"/><line x1="1050" y1="0" x2="1050" y2="630" stroke="#00d4ff" stroke-width="1"/><line x1="1100" y1="0" x2="1100" y2="630" stroke="#00d4ff" stroke-width="1"/><line x1="1150" y1="0" x2="1150" y2="630" stroke="#00d4ff" stroke-width="1"/>
    <line x1="0" y1="0" x2="1200" y2="0" stroke="#00d4ff" stroke-width="1"/><line x1="0" y1="50" x2="1200" y2="50" stroke="#00d4ff" stroke-width="1"/><line x1="0" y1="100" x2="1200" y2="100" stroke="#00d4ff" stroke-width="1"/><line x1="0" y1="150" x2="1200" y2="150" stroke="#00d4ff" stroke-width="1"/><line x1="0" y1="200" x2="1200" y2="200" stroke="#00d4ff" stroke-width="1"/><line x1="0" y1="250" x2="1200" y2="250" stroke="#00d4ff" stroke-width="1"/><line x1="0" y1="300" x2="1200" y2="300" stroke="#00d4ff" stroke-width="1"/><line x1="0" y1="350" x2="1200" y2="350" stroke="#00d4ff" stroke-width="1"/><line x1="0" y1="400" x2="1200" y2="400" stroke="#00d4ff" stroke-width="1"/><line x1="0" y1="450" x2="1200" y2="450" stroke="#00d4ff" stroke-width="1"/><line x1="0" y1="500" x2="1200" y2="500" stroke="#00d4ff" stroke-width="1"/><line x1="0" y1="550" x2="1200" y2="550" stroke="#00d4ff" stroke-width="1"/><line x1="0" y1="600" x2="1200" y2="600" stroke="#00d4ff" stroke-width="1"/>
  </g>
  
  <!-- Title background -->
  <rect x="0" y="215" width="1200" height="200" fill="#00d4ff" opacity="0.1"/>
  
  <!-- Main title -->
  <text x="600" y="295" font-family="Arial, sans-serif" font-size="72" font-weight="bold" text-anchor="middle" fill="#00d4ff" filter="url(#glow)">
    AI DEVELOPMENT
  </text>
  
  <!-- Subtitle -->
  <text x="600" y="365" font-family="Arial, sans-serif" font-size="48" font-weight="bold" text-anchor="middle" fill="#ff00aa" filter="url(#glow)">
    LESSONS LEARNED
  </text>
  
  <!-- Decorative lines -->
  <line x1="100" y1="315" x2="300" y2="315" stroke="#00d4ff" stroke-width="3"/>
  <line x1="900" y1="315" x2="1100" y2="315" stroke="#00d4ff" stroke-width="3"/>
  
  <!-- Code snippets decoration -->
  <g opacity="0.6">
    <rect x="50" y="50" width="200" height="100" fill="#1a1a2e" stroke="#00ff88" stroke-width="1"/>
    <text x="60" y="80" font-family="monospace" font-size="14" fill="#00ff88">function format() {</text>
    <text x="60" y="100" font-family="monospace" font-size="14" fill="#00ff88">  // duplicate code</text>
    <text x="60" y="120" font-family="monospace" font-size="14" fill="#00ff88">}</text>
  </g>
  
  <g opacity="0.6">
    <rect x="950" y="480" width="200" height="100" fill="#1a1a2e" stroke="#00ff88" stroke-width="1"/>
    <text x="960" y="510" font-family="monospace" font-size="14" fill="#00ff88">const isValid = ()</text>
    <text x="960" y="530" font-family="monospace" font-size="14" fill="#00ff88">  =&gt; regex.test(v)</text>
  </g>
</svg>